<svg xmlns="http://www.w3.org/2000/svg" width="45" height="59" viewBox="0 0 45 59">
    <g fill="none" fill-rule="evenodd">
        <g fill="#5C7EAB">
            <g>
                <g>
                    <g transform="translate(-447 -944) translate(203 911) translate(0 33) translate(244)">
                        <path d="M11.115 9.866v2.029h-.193c-4.78 0-8.656 3.875-8.656 8.656v16.1c0 11.045 8.954 20 20 20h.576c11.045 0 20-8.955 20-20V20.142c0-4.555-3.693-8.248-8.248-8.248h-.71V9.866h1.97c5.05 0 9.146 4.095 9.146 9.147v17.38c0 12.427-10.074 22.5-22.5 22.5S0 48.82 0 36.393V19.466c0-5.302 4.298-9.6 9.6-9.6h1.515z"/>
                        <path d="M8.975 18.804c-.156-3.338.072-5.83.686-7.473.92-2.466 4.187-3.15 5.538-4.233 1.35-1.082 1.442-6.17 7.2-6.17 5.759 0 5.984 4.863 7.557 6.17 1.572 1.307 3.684 1.307 5.103 4 .947 1.796 1.265 4.364.954 7.706H8.975zm2.225-2.21h22.557c.254-2.21-.028-3.874-.847-4.995-1.228-1.68-3.106-1.693-4.416-2.685-1.31-.991-1.728-5.836-5.99-5.836-4.263 0-4.745 5.015-5.87 5.836-1.125.822-4.035 1.427-4.88 3.008-.563 1.054-.748 2.612-.554 4.673zm11.246-7.583c-.834 0-1.51-.67-1.51-1.495 0-.826.676-1.496 1.51-1.496s1.51.67 1.51 1.496-.676 1.495-1.51 1.495z"/>
                        <rect width="5" height="12.021" x="14.518" y="34.007" rx="2.5" transform="rotate(-45 17.018 40.018)"/>
                        <rect width="5" height="23.688" x="24.643" y="25.049" rx="2.5" transform="rotate(45 27.143 36.893)"/>
                    </g>
                </g>
            </g>
        </g>
    </g>
</svg>
