<svg xmlns="http://www.w3.org/2000/svg" width="45" height="59" viewBox="0 0 45 59">
    <g fill="none" fill-rule="evenodd">
        <g fill="#5C7EAB">
            <g>
                <g>
                    <g transform="translate(-655 -944) translate(203 911) translate(0 33) translate(452)">
                        <path d="M11.115 9.866v2.029h-.193c-4.78 0-8.656 3.875-8.656 8.656v16.1c0 11.045 8.954 20 20 20h.576c11.045 0 20-8.955 20-20V20.142c0-4.555-3.693-8.248-8.248-8.248h-.71V9.866h1.97c5.05 0 9.146 4.095 9.146 9.147v17.38c0 12.427-10.074 22.5-22.5 22.5S0 48.82 0 36.393V19.466c0-5.302 4.298-9.6 9.6-9.6h1.515z"/>
                        <path d="M8.975 18.804c-.156-3.338.072-5.83.686-7.473.92-2.466 4.187-3.15 5.538-4.233 1.35-1.082 1.442-6.17 7.2-6.17 5.759 0 5.984 4.863 7.557 6.17 1.572 1.307 3.684 1.307 5.103 4 .947 1.796 1.265 4.364.954 7.706H8.975zm2.225-2.21h22.557c.254-2.21-.028-3.874-.847-4.995-1.228-1.68-3.106-1.693-4.416-2.685-1.31-.991-1.728-5.836-5.99-5.836-4.263 0-4.745 5.015-5.87 5.836-1.125.822-4.035 1.427-4.88 3.008-.563 1.054-.748 2.612-.554 4.673zm11.246-7.583c-.834 0-1.51-.67-1.51-1.495 0-.826.676-1.496 1.51-1.496s1.51.67 1.51 1.496-.676 1.495-1.51 1.495z"/>
                        <rect width="2.914" height="8.993" x="18.753" y="30.713" rx="1.457" transform="rotate(-45 20.21 35.21)"/>
                        <rect width="2.914" height="10.506" x="24.288" y="28.492" rx="1.457" transform="rotate(45 25.745 33.745)"/>
                        <path d="M22.5 49C15.044 49 9 42.956 9 35.5S15.044 22 22.5 22 36 28.044 36 35.5 29.956 49 22.5 49zm0-2C28.851 47 34 41.851 34 35.5S28.851 24 22.5 24 11 29.149 11 35.5 16.149 47 22.5 47z"/>
                    </g>
                </g>
            </g>
        </g>
    </g>
</svg>
